<svg xmlns="http://www.w3.org/2000/svg" version="1.1" xmlns:xlink="http://www.w3.org/1999/xlink" xmlns:svgjs="http://svgjs.dev/svgjs" width="1500" height="1500" viewBox="0 0 1500 1500"><rect width="1500" height="1500" fill="#ffffff"></rect><g transform="matrix(0.6666666666666666,0,0,0.6666666666666666,248.71290343528796,52.898245614035204)"><svg viewBox="0 0 177 247" data-background-color="#ffffff" preserveAspectRatio="xMidYMid meet" height="2093" width="1500" xmlns="http://www.w3.org/2000/svg" xmlns:xlink="http://www.w3.org/1999/xlink"><g id="tight-bounds" transform="matrix(1,0,0,1,0.22781609195402552,-0.09999999999999432)"><svg viewBox="0 0 176.54436781609195 247.2" height="247.2" width="176.54436781609195"><g><svg viewBox="0 0 176.54436781609195 247.2" height="247.2" width="176.54436781609195"><g><svg viewBox="0 0 176.54436781609195 247.2" height="247.2" width="176.54436781609195"><g id="textblocktransform"><svg viewBox="0 0 176.54436781609195 247.2" height="247.2" width="176.54436781609195" id="textblock"><g><svg viewBox="0 0 176.54436781609195 247.2" height="247.2" width="176.54436781609195"><g transform="matrix(1,0,0,1,0,0)"><svg width="176.54436781609195" viewBox="0 -31.86 22.75 31.86" height="247.2" data-palette-color="#ff5c40"><path d="M22.75-31.86L22.75-21.09 19.9-21.09 19.9-29 13.06-29 13.06-2.86 18.19-2.86 18.19 0 4.54 0 4.54-2.86 9.69-2.86 9.69-29 2.86-29 2.86-21.09 0-21.09 0-31.86 22.75-31.86Z" opacity="1" transform="matrix(1,0,0,1,0,0)" fill="#ff5c40" class="wordmark-text-0" data-fill-palette-color="primary" id="text-0"></path></svg></g></svg></g></svg></g></svg></g><g></g></svg></g><defs></defs></svg><rect width="176.54436781609195" height="247.2" fill="none" stroke="none" visibility="hidden"></rect></g></svg></g></svg>